<mxfile host="app.diagrams.net" modified="2024-03-15T03:23:33.804Z" agent="Mozilla/5.0 (X11; Linux x86_64) AppleWebKit/537.36 (KHTML, like Gecko) Chrome/120.0.0.0 Safari/537.36" etag="InAygfFCM823UyLZ3TfQ" version="24.0.6" type="device">
  <diagram name="1 oldal" id="EqfmGI88TmPKDNKZ2ICJ">
    <mxGraphModel dx="1364" dy="891" grid="1" gridSize="10" guides="1" tooltips="1" connect="1" arrows="1" fold="1" page="1" pageScale="1" pageWidth="1169" pageHeight="1654" math="0" shadow="0">
      <root>
        <mxCell id="0" />
        <mxCell id="1" parent="0" />
        <mxCell id="k0lFipu8UU_0X1n3g7-l-5" style="edgeStyle=orthogonalEdgeStyle;rounded=0;orthogonalLoop=1;jettySize=auto;html=1;exitX=1;exitY=0.5;exitDx=0;exitDy=0;" edge="1" parent="1" source="k0lFipu8UU_0X1n3g7-l-3" target="k0lFipu8UU_0X1n3g7-l-4">
          <mxGeometry relative="1" as="geometry" />
        </mxCell>
        <mxCell id="k0lFipu8UU_0X1n3g7-l-7" value="Categories&lt;div&gt;belonging&lt;/div&gt;&lt;div&gt;to papers&lt;/div&gt;" style="edgeLabel;html=1;align=center;verticalAlign=middle;resizable=0;points=[];" vertex="1" connectable="0" parent="k0lFipu8UU_0X1n3g7-l-5">
          <mxGeometry x="-0.2545" y="4" relative="1" as="geometry">
            <mxPoint x="10" as="offset" />
          </mxGeometry>
        </mxCell>
        <mxCell id="k0lFipu8UU_0X1n3g7-l-3" value="&lt;div style=&quot;text-align: justify;&quot;&gt;&lt;span style=&quot;background-color: initial;&quot;&gt;&lt;u&gt;Papers:&lt;/u&gt;&lt;/span&gt;&lt;/div&gt;&lt;div style=&quot;text-align: justify;&quot;&gt;- OpenAIRE:&amp;nbsp; &amp;nbsp;108555&lt;/div&gt;&lt;div style=&quot;text-align: justify;&quot;&gt;- OpenAlex:&amp;nbsp; &amp;nbsp; 176200&lt;/div&gt;&lt;div style=&quot;text-align: justify;&quot;&gt;&lt;b&gt;- Alignment:&amp;nbsp; 108555&lt;/b&gt;&lt;/div&gt;" style="rounded=0;whiteSpace=wrap;html=1;" vertex="1" parent="1">
          <mxGeometry x="40" y="320" width="150" height="80" as="geometry" />
        </mxCell>
        <mxCell id="k0lFipu8UU_0X1n3g7-l-4" value="&lt;div style=&quot;text-align: justify;&quot;&gt;&lt;span style=&quot;background-color: initial;&quot;&gt;&lt;u&gt;Categories:&lt;/u&gt;&lt;/span&gt;&lt;/div&gt;&lt;div style=&quot;text-align: justify;&quot;&gt;- OpenAIRE:&amp;nbsp; 30744&lt;/div&gt;&lt;div style=&quot;text-align: justify;&quot;&gt;- OpenAlex:&amp;nbsp; &amp;nbsp;111309&lt;/div&gt;&lt;div style=&quot;text-align: justify;&quot;&gt;&lt;b&gt;- Union:&amp;nbsp; &amp;nbsp; &amp;nbsp; &amp;nbsp; &amp;nbsp;&lt;span style=&quot;background-color: initial; text-align: center;&quot;&gt;114599&lt;/span&gt;&lt;/b&gt;&lt;/div&gt;" style="rounded=0;whiteSpace=wrap;html=1;" vertex="1" parent="1">
          <mxGeometry x="290" y="320" width="150" height="80" as="geometry" />
        </mxCell>
        <mxCell id="k0lFipu8UU_0X1n3g7-l-8" value="&lt;div style=&quot;text-align: justify;&quot;&gt;&lt;span style=&quot;background-color: initial;&quot;&gt;&lt;u&gt;Categories:&lt;/u&gt;&lt;/span&gt;&lt;/div&gt;&lt;div style=&quot;text-align: justify;&quot;&gt;- OpenAIRE:&amp;nbsp; 30744&lt;/div&gt;&lt;div style=&quot;text-align: justify;&quot;&gt;- OpenAlex:&amp;nbsp; &amp;nbsp;111309&lt;/div&gt;&lt;div style=&quot;text-align: justify;&quot;&gt;&lt;b&gt;- Union:&amp;nbsp; &amp;nbsp; &amp;nbsp; &amp;nbsp; &amp;nbsp;&lt;span style=&quot;background-color: initial; text-align: center;&quot;&gt;114599&lt;/span&gt;&lt;/b&gt;&lt;/div&gt;" style="rounded=0;whiteSpace=wrap;html=1;" vertex="1" parent="1">
          <mxGeometry x="290" y="460" width="150" height="80" as="geometry" />
        </mxCell>
      </root>
    </mxGraphModel>
  </diagram>
</mxfile>
